<svg width="16" height="14" viewBox="0 0 16 14" fill="#fff" xmlns="http://www.w3.org/2000/svg">
<path d="M11 4.46622V2.99998H5C2.79086 2.99998 1 4.79085 1 6.99998C1 7.63948 1.1497 8.24258 1.41552 8.77747C1.53841 9.02476 1.43757 9.32485 1.19028 9.44774C0.942987 9.57063 0.642895 9.46979 0.520003 9.2225C0.187005 8.55243 0 7.79733 0 6.99998C0 4.23856 2.23858 1.99998 5 1.99998H11V0.533742C11 0.321783 11.2472 0.205993 11.41 0.341687L13.7695 2.30793C13.8895 2.40788 13.8895 2.59209 13.7695 2.69204L11.41 4.65828C11.2472 4.79397 11 4.67818 11 4.46622Z" fill="black"/>
<path d="M14.8097 4.55223C15.057 4.42934 15.3571 4.53018 15.48 4.77747C15.813 5.44754 16 6.20264 16 6.99998C16 9.76141 13.7614 12 11 12H5V13.4662C5 13.6782 4.75279 13.794 4.58995 13.6583L2.23047 11.692C2.11053 11.5921 2.11053 11.4079 2.23047 11.3079L4.58995 9.34169C4.75279 9.20599 5 9.32178 5 9.53374V11H11C13.2091 11 15 9.20912 15 6.99998C15 6.36049 14.8503 5.75739 14.5845 5.2225C14.4616 4.97521 14.5624 4.67512 14.8097 4.55223Z" fill="black"/>
</svg>
